<svg width="308" height="198" viewBox="0 0 308 198" fill="none" xmlns="http://www.w3.org/2000/svg">
<path d="M11.2558 197.635C7.88367 197.635 5.16468 196.587 3.09885 194.491C1.03302 192.365 0.000106812 188.673 0.000106812 183.418V120.395C0.000106812 119.18 0.379855 118.147 1.13935 117.296C1.92923 116.445 2.93176 116.02 4.14695 116.02H9.25076C10.4963 116.02 11.4989 116.445 12.2584 117.296C13.0179 118.147 13.3976 119.18 13.3976 120.395V183.554C13.3976 184.284 13.5343 184.815 13.8077 185.149C14.0812 185.453 14.4457 185.605 14.9014 185.605C15.6305 185.605 16.3293 185.423 16.9976 185.058C17.6964 184.694 18.3191 184.511 18.866 184.511C19.8381 184.511 20.6128 185.195 21.19 186.562C21.4634 187.17 21.8128 187.929 22.2381 188.84C22.6635 189.722 22.8761 190.527 22.8761 191.256C22.8761 192.289 22.2989 193.291 21.1445 194.263C19.6255 195.509 18.0002 196.375 16.2685 196.861C14.5672 197.377 12.8963 197.635 11.2558 197.635Z" fill="#1F294E"/>
<path d="M54.6382 197.954C49.2306 197.954 44.5217 196.8 40.5116 194.491C36.5318 192.182 33.4331 188.992 31.2154 184.921C29.028 180.851 27.9344 176.218 27.9344 171.023C27.9344 165.676 29.1192 160.997 31.4888 156.987C33.8584 152.977 37.0635 149.863 41.104 147.645C45.1445 145.397 49.6711 144.273 54.6838 144.273C60.4559 144.273 65.3167 145.397 69.2661 147.645C73.2155 149.863 76.2079 152.977 78.2433 156.987C80.3092 160.997 81.3421 165.676 81.3421 171.023C81.3421 176.4 80.1573 181.109 77.7876 185.149C75.418 189.19 72.2129 192.334 68.1724 194.582C64.1623 196.83 59.6509 197.954 54.6382 197.954ZM54.7749 186.516C57.904 186.516 60.3952 185.833 62.2484 184.466C64.1319 183.099 65.4838 181.261 66.3041 178.952C67.1547 176.643 67.58 174.076 67.58 171.251C67.58 168.79 67.1547 166.375 66.3041 164.005C65.4838 161.635 64.1319 159.676 62.2484 158.126C60.3952 156.577 57.8585 155.802 54.6382 155.802C51.5395 155.802 49.0331 156.562 47.1192 158.081C45.2357 159.57 43.8534 161.529 42.9724 163.959C42.1217 166.39 41.6964 168.957 41.6964 171.661C41.6964 174.152 42.1673 176.537 43.1091 178.815C44.0508 181.094 45.4787 182.947 47.3926 184.375C49.3369 185.803 51.7977 186.516 54.7749 186.516Z" fill="#1F294E"/>
<path d="M115.747 197.954C110.4 197.954 105.783 196.83 101.894 194.582C98.0054 192.304 95.013 189.129 92.9168 185.058C90.8206 180.957 89.7725 176.218 89.7725 170.84C89.7725 165.311 90.8813 160.572 93.0991 156.623C95.3472 152.643 98.4003 149.59 102.259 147.463C106.147 145.337 110.567 144.273 115.519 144.273C120.441 144.273 124.375 145.094 127.322 146.734C130.299 148.375 132.456 150.456 133.793 152.977C135.13 155.499 135.798 158.081 135.798 160.724C135.798 163.124 135.099 164.81 133.702 165.782C132.335 166.754 130.709 167.24 128.826 167.24H127.778C126.046 167.24 124.755 166.815 123.904 165.964C123.084 165.083 122.674 163.914 122.674 162.456C122.674 159.995 121.99 158.248 120.623 157.215C119.256 156.182 117.509 155.666 115.383 155.666C112.648 155.666 110.431 156.425 108.729 157.944C107.059 159.433 105.828 161.316 105.038 163.595C104.279 165.873 103.899 168.182 103.899 170.521C103.899 173.499 104.309 176.172 105.129 178.542C105.95 180.881 107.286 182.734 109.14 184.101C110.993 185.438 113.469 186.106 116.567 186.106C118.876 186.106 120.851 185.727 122.492 184.967C124.132 184.208 125.605 183.494 126.912 182.825C127.489 182.491 128.051 182.233 128.598 182.051C129.175 181.838 129.707 181.732 130.193 181.732C130.922 181.732 131.605 181.899 132.243 182.233C132.881 182.567 133.413 183.084 133.838 183.782L134.841 185.377C135.205 185.954 135.433 186.456 135.524 186.881C135.646 187.276 135.707 187.64 135.707 187.975C135.707 189.524 135.008 190.922 133.611 192.167C132.243 193.413 130.497 194.476 128.37 195.357C126.243 196.208 124.041 196.846 121.762 197.271C119.514 197.727 117.509 197.954 115.747 197.954Z" fill="#1F294E"/>
<path d="M162.365 198C159.175 198 156.122 197.347 153.206 196.041C150.319 194.734 147.95 192.805 146.097 190.253C144.274 187.701 143.362 184.557 143.362 180.82C143.362 177.661 143.985 175.018 145.231 172.891C146.476 170.765 148.041 169.048 149.925 167.742C151.808 166.435 153.889 165.509 156.168 164.962C158.476 164.385 160.755 164.096 163.003 164.096C164.795 164.096 166.801 164.324 169.018 164.78C171.266 165.235 173.484 166.116 175.671 167.423C177.889 168.729 179.849 170.689 181.55 173.301L175.216 173.848C175.489 172.815 175.702 171.661 175.854 170.385C176.006 169.109 176.082 167.924 176.082 166.83C176.082 162.942 175.033 160.101 172.937 158.309C170.841 156.486 167.894 155.575 164.097 155.575C161.757 155.575 159.783 155.848 158.173 156.395C156.593 156.911 155.241 157.443 154.117 157.99C153.388 158.324 152.826 158.582 152.431 158.764C152.036 158.947 151.626 159.038 151.2 159.038C150.289 159.038 149.575 158.749 149.059 158.172C148.542 157.595 148.087 156.942 147.692 156.213C147.236 155.301 146.902 154.466 146.689 153.706C146.476 152.947 146.37 152.415 146.37 152.111C146.37 151.352 146.689 150.607 147.327 149.878C147.995 149.119 148.861 148.435 149.925 147.828C151.96 146.613 154.406 145.716 157.261 145.139C160.117 144.562 162.851 144.273 165.464 144.273C167.256 144.273 169.018 144.425 170.75 144.729C172.482 145.033 174.168 145.534 175.808 146.233C179.575 147.873 182.492 150.364 184.558 153.706C186.623 157.018 187.656 160.997 187.656 165.646C187.656 167.347 187.535 169.094 187.292 170.886C187.049 172.648 186.699 174.592 186.244 176.719C186.973 178.663 187.626 180.684 188.203 182.78C188.78 184.846 189.251 186.805 189.616 188.658C189.98 190.511 190.178 192.061 190.208 193.306C190.208 194.127 190.011 194.932 189.616 195.722C189.221 196.481 188.294 196.861 186.836 196.861H182.78C181.17 196.861 180.198 196.481 179.864 195.722C179.53 194.932 179.287 194.051 179.135 193.078C178.983 191.954 178.801 190.891 178.588 189.889C178.406 188.886 178.239 188.051 178.087 187.382C177.965 186.714 177.874 186.349 177.813 186.289L181.094 185.787C180.395 187.823 179.211 189.782 177.54 191.666C175.869 193.549 173.757 195.084 171.206 196.268C168.654 197.423 165.707 198 162.365 198ZM164.279 187.2C166.193 187.2 167.879 186.851 169.337 186.152C170.826 185.423 171.995 184.557 172.846 183.554C173.727 182.521 174.168 181.534 174.168 180.592C174.107 179.286 173.575 178.192 172.573 177.311C171.57 176.4 170.34 175.701 168.882 175.215C167.423 174.729 165.919 174.486 164.37 174.486C163.064 174.486 161.803 174.729 160.588 175.215C159.403 175.671 158.431 176.37 157.671 177.311C156.912 178.223 156.532 179.392 156.532 180.82C156.532 182.825 157.261 184.39 158.719 185.514C160.178 186.638 162.031 187.2 164.279 187.2Z" fill="#1F294E"/>
<path d="M213.13 197.635C209.758 197.635 207.039 196.587 204.973 194.491C202.907 192.365 201.874 188.673 201.874 183.418V120.395C201.874 119.18 202.254 118.147 203.013 117.296C203.803 116.445 204.806 116.02 206.021 116.02H211.125C212.37 116.02 213.373 116.445 214.132 117.296C214.892 118.147 215.271 119.18 215.271 120.395V183.554C215.271 184.284 215.408 184.815 215.682 185.149C215.955 185.453 216.32 185.605 216.775 185.605C217.504 185.605 218.203 185.423 218.872 185.058C219.57 184.694 220.193 184.511 220.74 184.511C221.712 184.511 222.487 185.195 223.064 186.562C223.337 187.17 223.687 187.929 224.112 188.84C224.537 189.722 224.75 190.527 224.75 191.256C224.75 192.289 224.173 193.291 223.018 194.263C221.499 195.509 219.874 196.375 218.142 196.861C216.441 197.377 214.77 197.635 213.13 197.635Z" fill="#1F294E"/>
<path d="M238.831 196.861C237.616 196.861 236.613 196.451 235.823 195.63C235.064 194.78 234.684 193.747 234.684 192.532V131.331C234.684 130.116 235.064 129.099 235.823 128.278C236.613 127.428 237.616 127.002 238.831 127.002H244.391C245.636 127.002 246.639 127.428 247.398 128.278C248.158 129.099 248.537 130.116 248.537 131.331V192.532C248.537 193.747 248.158 194.78 247.398 195.63C246.639 196.451 245.636 196.861 244.391 196.861H238.831ZM234.73 118.299C234.335 117.873 234.153 117.387 234.183 116.84C234.213 116.293 234.411 115.823 234.775 115.428L247.444 101.802C248.264 100.891 249.16 100.359 250.132 100.207C251.105 100.025 251.955 100.359 252.684 101.21L256.193 105.038C256.861 105.736 257.165 106.542 257.105 107.453C257.074 108.334 256.512 109.185 255.418 110.005L240.289 121.078C239.803 121.412 239.256 121.58 238.649 121.58C238.041 121.58 237.464 121.291 236.917 120.714L234.73 118.299Z" fill="#1F294E"/>
<path d="M280.117 198C276.927 198 273.874 197.347 270.958 196.041C268.072 194.734 265.702 192.805 263.849 190.253C262.026 187.701 261.115 184.557 261.115 180.82C261.115 177.661 261.737 175.018 262.983 172.891C264.229 170.765 265.793 169.048 267.677 167.742C269.56 166.435 271.641 165.509 273.92 164.962C276.229 164.385 278.507 164.096 280.755 164.096C282.548 164.096 284.553 164.324 286.77 164.78C289.019 165.235 291.236 166.116 293.424 167.423C295.641 168.729 297.601 170.689 299.302 173.301L292.968 173.848C293.241 172.815 293.454 171.661 293.606 170.385C293.758 169.109 293.834 167.924 293.834 166.83C293.834 162.942 292.786 160.101 290.689 158.309C288.593 156.486 285.646 155.575 281.849 155.575C279.51 155.575 277.535 155.848 275.925 156.395C274.345 156.911 272.993 157.443 271.869 157.99C271.14 158.324 270.578 158.582 270.183 158.764C269.788 158.947 269.378 159.038 268.953 159.038C268.041 159.038 267.327 158.749 266.811 158.172C266.294 157.595 265.839 156.942 265.444 156.213C264.988 155.301 264.654 154.466 264.441 153.706C264.229 152.947 264.122 152.415 264.122 152.111C264.122 151.352 264.441 150.607 265.079 149.878C265.748 149.119 266.613 148.435 267.677 147.828C269.712 146.613 272.158 145.716 275.013 145.139C277.869 144.562 280.603 144.273 283.216 144.273C285.008 144.273 286.77 144.425 288.502 144.729C290.234 145.033 291.92 145.534 293.56 146.233C297.327 147.873 300.244 150.364 302.31 153.706C304.376 157.018 305.408 160.997 305.408 165.646C305.408 167.347 305.287 169.094 305.044 170.886C304.801 172.648 304.451 174.592 303.996 176.719C304.725 178.663 305.378 180.684 305.955 182.78C306.532 184.846 307.003 186.805 307.368 188.658C307.732 190.511 307.93 192.061 307.96 193.306C307.96 194.127 307.763 194.932 307.368 195.722C306.973 196.481 306.046 196.861 304.588 196.861H300.532C298.922 196.861 297.95 196.481 297.616 195.722C297.282 194.932 297.039 194.051 296.887 193.078C296.735 191.954 296.553 190.891 296.34 189.889C296.158 188.886 295.991 188.051 295.839 187.382C295.717 186.714 295.626 186.349 295.565 186.289L298.846 185.787C298.148 187.823 296.963 189.782 295.292 191.666C293.621 193.549 291.51 195.084 288.958 196.268C286.406 197.423 283.459 198 280.117 198ZM282.031 187.2C283.945 187.2 285.631 186.851 287.089 186.152C288.578 185.423 289.748 184.557 290.598 183.554C291.479 182.521 291.92 181.534 291.92 180.592C291.859 179.286 291.327 178.192 290.325 177.311C289.322 176.4 288.092 175.701 286.634 175.215C285.175 174.729 283.672 174.486 282.122 174.486C280.816 174.486 279.555 174.729 278.34 175.215C277.155 175.671 276.183 176.37 275.424 177.311C274.664 178.223 274.284 179.392 274.284 180.82C274.284 182.825 275.013 184.39 276.472 185.514C277.93 186.638 279.783 187.2 282.031 187.2Z" fill="#1F294E"/>
<path fill-rule="evenodd" clip-rule="evenodd" d="M200.449 30.7823C200.735 32.0616 202.069 32.8865 203.294 32.4198L216.183 27.5099H247.412C248.561 27.5099 248.803 29.13 247.705 29.4662L52.6641 89.1584C51.1624 89.618 49.7497 88.2541 50.2152 86.7542C62.7316 46.4231 107.785 -3.27 160.421 0.768058C171.396 3.27747 196.405 12.7084 200.449 30.7823ZM135.953 34.8131C135.534 33.9696 135.785 32.9353 136.565 32.4076C143.642 27.6203 156.416 22.7534 160.532 35.4694C160.693 35.9654 160.634 36.5165 160.37 36.9664C155.854 44.6811 145.401 53.8399 135.953 34.8131Z" fill="#1F294E"/>
<path fill-rule="evenodd" clip-rule="evenodd" d="M216.183 27.5099C211.386 17.1975 188.51 -3.01171 160.443 0.378806C160.224 0.405239 160.206 0.71893 160.421 0.768058C171.396 3.27747 196.405 12.7084 200.449 30.7823C200.735 32.0616 202.069 32.8865 203.294 32.4198L216.183 27.5099Z" fill="#E2725B"/>
<path fill-rule="evenodd" clip-rule="evenodd" d="M117.493 79.3205C116.836 78.2636 117.376 76.9088 118.555 76.5104L211.737 45.0214C213.84 44.3107 215.456 47.1997 213.833 48.7149C186.042 74.6646 189.214 90.859 195.701 98.2702C196.662 99.3673 196.451 101.179 195.127 101.791C154.807 120.415 126.943 94.521 117.493 79.3205Z" fill="#E2725B"/>
</svg>
