<svg width="142" height="29" viewBox="0 0 142 29" fill="none" xmlns="http://www.w3.org/2000/svg">
<path d="M62.5449 27.3048C61.6419 27.3048 60.9138 27.0241 60.3606 26.4626C59.8073 25.893 59.5307 24.9044 59.5307 23.4967V6.61692C59.5307 6.29144 59.6324 6.01479 59.8358 5.78696C60.0473 5.55913 60.3158 5.44522 60.6412 5.44522H62.008C62.3415 5.44522 62.61 5.55913 62.8134 5.78696C63.0168 6.01479 63.1185 6.29144 63.1185 6.61692V23.5334C63.1185 23.7286 63.1551 23.871 63.2283 23.9605C63.3015 24.0419 63.3992 24.0826 63.5212 24.0826C63.7164 24.0826 63.9036 24.0338 64.0825 23.9361C64.2697 23.8385 64.4364 23.7897 64.5829 23.7897C64.8432 23.7897 65.0507 23.9727 65.2052 24.3389C65.2784 24.5016 65.372 24.7051 65.4859 24.9492C65.5998 25.1851 65.6567 25.4008 65.6567 25.596C65.6567 25.8727 65.5022 26.1412 65.193 26.4016C64.7863 26.7352 64.351 26.9671 63.8873 27.0973C63.4317 27.2356 62.9842 27.3048 62.5449 27.3048Z" fill="#1F294E"/>
<path d="M74.1624 27.3902C72.7143 27.3902 71.4533 27.081 70.3794 26.4626C69.3136 25.8442 68.4838 24.9898 67.8899 23.8995C67.3042 22.8092 67.0113 21.5683 67.0113 20.1769C67.0113 18.7448 67.3286 17.4917 67.9632 16.4177C68.5977 15.3436 69.456 14.5096 70.538 13.9156C71.62 13.3135 72.8322 13.0124 74.1746 13.0124C75.7203 13.0124 77.022 13.3135 78.0796 13.9156C79.1372 14.5096 79.9386 15.3436 80.4836 16.4177C81.0368 17.4917 81.3134 18.7448 81.3134 20.1769C81.3134 21.6171 80.9962 22.8783 80.3616 23.9605C79.727 25.0427 78.8687 25.8849 77.7867 26.487C76.7128 27.0892 75.5047 27.3902 74.1624 27.3902ZM74.199 24.3267C75.0369 24.3267 75.704 24.1436 76.2003 23.7775C76.7047 23.4113 77.0667 22.919 77.2864 22.3006C77.5142 21.6822 77.6281 20.9947 77.6281 20.2379C77.6281 19.5789 77.5142 18.9319 77.2864 18.2973C77.0667 17.6626 76.7047 17.1378 76.2003 16.7228C75.704 16.3078 75.0247 16.1003 74.1624 16.1003C73.3326 16.1003 72.6614 16.3038 72.1488 16.7106C71.6445 17.1093 71.2743 17.6341 71.0384 18.2851C70.8106 18.936 70.6967 19.6236 70.6967 20.3478C70.6967 21.015 70.8228 21.6538 71.075 22.264C71.3272 22.8743 71.7095 23.3706 72.2221 23.753C72.7427 24.1355 73.4017 24.3267 74.199 24.3267Z" fill="#1F294E"/>
<path d="M90.5269 27.3902C89.095 27.3902 87.8584 27.0892 86.8171 26.487C85.7757 25.8768 84.9744 25.0265 84.413 23.9361C83.8517 22.8377 83.571 21.5683 83.571 20.1281C83.571 18.6472 83.868 17.3778 84.4619 16.32C85.0639 15.2541 85.8815 14.4364 86.9147 13.8668C87.956 13.2972 89.1398 13.0124 90.4659 13.0124C91.7838 13.0124 92.8373 13.2321 93.6265 13.6715C94.4238 14.1109 95.0014 14.6683 95.3593 15.3436C95.7173 16.019 95.8963 16.7106 95.8963 17.4185C95.8963 18.0613 95.7092 18.5129 95.3349 18.7733C94.9688 19.0337 94.5336 19.1639 94.0292 19.1639H93.7485C93.2848 19.1639 92.939 19.0499 92.7113 18.8221C92.4916 18.5861 92.3818 18.2729 92.3818 17.8823C92.3818 17.2232 92.1987 16.7554 91.8326 16.4787C91.4665 16.2021 90.9987 16.0637 90.4293 16.0637C89.6971 16.0637 89.1032 16.2671 88.6476 16.674C88.2001 17.0727 87.8706 17.5772 87.6591 18.1874C87.4557 18.7977 87.354 19.4161 87.354 20.0427C87.354 20.8401 87.4638 21.5561 87.6835 22.1908C87.9032 22.8173 88.2612 23.3137 88.7574 23.6798C89.2537 24.0378 89.9167 24.2168 90.7465 24.2168C91.3648 24.2168 91.8936 24.1151 92.3329 23.9117C92.7723 23.7083 93.1668 23.5171 93.5167 23.3381C93.6712 23.2486 93.8217 23.1794 93.9682 23.1306C94.1228 23.0736 94.2651 23.0451 94.3953 23.0451C94.5905 23.0451 94.7736 23.0899 94.9444 23.1794C95.1153 23.2689 95.2577 23.4072 95.3716 23.5944L95.64 24.0216C95.7376 24.1762 95.7987 24.3104 95.8231 24.4243C95.8556 24.5301 95.8719 24.6278 95.8719 24.7173C95.8719 25.1322 95.6848 25.5065 95.3105 25.8402C94.9444 26.1738 94.4766 26.4586 93.9072 26.6945C93.3377 26.9224 92.7479 27.0932 92.1377 27.2071C91.5357 27.3292 90.9987 27.3902 90.5269 27.3902Z" fill="#1F294E"/>
<path d="M103.011 27.4024C102.157 27.4024 101.339 27.2275 100.558 26.8776C99.785 26.5277 99.1505 26.011 98.6542 25.3275C98.1661 24.644 97.922 23.8019 97.922 22.801C97.922 21.9548 98.0888 21.2469 98.4224 20.6773C98.7559 20.1078 99.1749 19.648 99.6793 19.2981C100.184 18.9482 100.741 18.7 101.351 18.5536C101.969 18.399 102.58 18.3217 103.182 18.3217C103.662 18.3217 104.199 18.3827 104.792 18.5048C105.394 18.6268 105.988 18.8628 106.574 19.2127C107.168 19.5626 107.693 20.0874 108.148 20.7872L106.452 20.9336C106.525 20.657 106.582 20.3478 106.623 20.006C106.664 19.6643 106.684 19.3469 106.684 19.054C106.684 18.0125 106.403 17.2517 105.842 16.7716C105.281 16.2834 104.491 16.0393 103.474 16.0393C102.848 16.0393 102.319 16.1125 101.888 16.259C101.465 16.3973 101.103 16.5397 100.802 16.6862C100.607 16.7757 100.456 16.8449 100.35 16.8937C100.245 16.9425 100.135 16.9669 100.021 16.9669C99.7769 16.9669 99.5857 16.8896 99.4474 16.735C99.3091 16.5804 99.1871 16.4055 99.0813 16.2102C98.9593 15.9661 98.8698 15.7423 98.8129 15.5389C98.7559 15.3355 98.7274 15.1931 98.7274 15.1117C98.7274 14.9083 98.8129 14.709 98.9837 14.5137C99.1627 14.3102 99.3945 14.1272 99.6793 13.9644C100.224 13.639 100.879 13.3989 101.644 13.2443C102.409 13.0897 103.141 13.0124 103.841 13.0124C104.321 13.0124 104.792 13.0531 105.256 13.1345C105.72 13.2158 106.171 13.3501 106.611 13.5373C107.62 13.9766 108.401 14.6439 108.954 15.5389C109.507 16.4258 109.784 17.4917 109.784 18.7367C109.784 19.1923 109.751 19.6602 109.686 20.1403C109.621 20.6122 109.527 21.133 109.405 21.7026C109.6 22.2233 109.775 22.7644 109.93 23.3259C110.085 23.8792 110.211 24.404 110.308 24.9003C110.406 25.3967 110.459 25.8117 110.467 26.1453C110.467 26.365 110.414 26.5806 110.308 26.7922C110.203 26.9956 109.954 27.0973 109.564 27.0973H108.478C108.047 27.0973 107.786 26.9956 107.697 26.7922C107.607 26.5806 107.542 26.3446 107.502 26.0843C107.461 25.7832 107.412 25.4984 107.355 25.2299C107.306 24.9614 107.262 24.7376 107.221 24.5586C107.188 24.3796 107.164 24.2819 107.148 24.2657L108.026 24.1314C107.839 24.6766 107.522 25.2014 107.074 25.7059C106.627 26.2104 106.062 26.6213 105.378 26.9386C104.695 27.2478 103.906 27.4024 103.011 27.4024ZM103.523 24.5098C104.036 24.5098 104.487 24.4162 104.878 24.2291C105.276 24.0338 105.59 23.8019 105.817 23.5334C106.053 23.2567 106.171 22.9923 106.171 22.74C106.155 22.3901 106.013 22.0972 105.744 21.8612C105.476 21.6171 105.146 21.43 104.756 21.2998C104.365 21.1696 103.963 21.1045 103.548 21.1045C103.198 21.1045 102.86 21.1696 102.535 21.2998C102.218 21.4219 101.957 21.609 101.754 21.8612C101.55 22.1053 101.449 22.4186 101.449 22.801C101.449 23.3381 101.644 23.7571 102.035 24.0582C102.425 24.3592 102.921 24.5098 103.523 24.5098Z" fill="#1F294E"/>
<path d="M116.605 27.3048C115.702 27.3048 114.974 27.0241 114.421 26.4626C113.868 25.893 113.591 24.9044 113.591 23.4967V6.61692C113.591 6.29144 113.693 6.01479 113.896 5.78696C114.108 5.55913 114.376 5.44522 114.701 5.44522H116.068C116.402 5.44522 116.67 5.55913 116.874 5.78696C117.077 6.01479 117.179 6.29144 117.179 6.61692V23.5334C117.179 23.7286 117.215 23.871 117.289 23.9605C117.362 24.0419 117.459 24.0826 117.581 24.0826C117.777 24.0826 117.964 24.0338 118.143 23.9361C118.33 23.8385 118.497 23.7897 118.643 23.7897C118.903 23.7897 119.111 23.9727 119.265 24.3389C119.339 24.5016 119.432 24.7051 119.546 24.9492C119.66 25.1851 119.717 25.4008 119.717 25.596C119.717 25.8727 119.562 26.1412 119.253 26.4016C118.846 26.7352 118.411 26.9671 117.947 27.0973C117.492 27.2356 117.044 27.3048 116.605 27.3048Z" fill="#1F294E"/>
<path d="M123.488 27.0973C123.162 27.0973 122.894 26.9874 122.682 26.7678C122.479 26.5399 122.377 26.2633 122.377 25.9378V9.54616C122.377 9.22069 122.479 8.9481 122.682 8.72841C122.894 8.50058 123.162 8.38667 123.488 8.38667H124.977C125.31 8.38667 125.579 8.50058 125.782 8.72841C125.985 8.9481 126.087 9.22069 126.087 9.54616V25.9378C126.087 26.2633 125.985 26.5399 125.782 26.7678C125.579 26.9874 125.31 27.0973 124.977 27.0973H123.488ZM122.389 6.05548C122.284 5.94156 122.235 5.81137 122.243 5.66491C122.251 5.51845 122.304 5.39233 122.402 5.28655L125.794 1.6372C126.014 1.39309 126.254 1.2507 126.514 1.21002C126.774 1.16119 127.002 1.2507 127.198 1.47853L128.137 2.50376C128.316 2.69091 128.398 2.90654 128.381 3.15064C128.373 3.38661 128.223 3.61444 127.93 3.83413L123.878 6.79999C123.748 6.8895 123.602 6.93425 123.439 6.93425C123.276 6.93425 123.122 6.85695 122.975 6.70235L122.389 6.05548Z" fill="#1F294E"/>
<path d="M134.544 27.4024C133.69 27.4024 132.872 27.2275 132.091 26.8776C131.318 26.5277 130.684 26.011 130.187 25.3275C129.699 24.644 129.455 23.8019 129.455 22.801C129.455 21.9548 129.622 21.2469 129.955 20.6773C130.289 20.1078 130.708 19.648 131.212 19.2981C131.717 18.9482 132.274 18.7 132.884 18.5536C133.503 18.399 134.113 18.3217 134.715 18.3217C135.195 18.3217 135.732 18.3827 136.326 18.5048C136.928 18.6268 137.521 18.8628 138.107 19.2127C138.701 19.5626 139.226 20.0874 139.681 20.7872L137.985 20.9336C138.058 20.657 138.115 20.3478 138.156 20.006C138.197 19.6643 138.217 19.3469 138.217 19.054C138.217 18.0125 137.936 17.2517 137.375 16.7716C136.814 16.2834 136.025 16.0393 135.008 16.0393C134.381 16.0393 133.852 16.1125 133.421 16.259C132.998 16.3973 132.636 16.5397 132.335 16.6862C132.14 16.7757 131.989 16.8449 131.884 16.8937C131.778 16.9425 131.668 16.9669 131.554 16.9669C131.31 16.9669 131.119 16.8896 130.981 16.735C130.842 16.5804 130.72 16.4055 130.614 16.2102C130.492 15.9661 130.403 15.7423 130.346 15.5389C130.289 15.3355 130.261 15.1931 130.261 15.1117C130.261 14.9083 130.346 14.709 130.517 14.5137C130.696 14.3102 130.928 14.1272 131.212 13.9644C131.757 13.639 132.412 13.3989 133.177 13.2443C133.942 13.0897 134.674 13.0124 135.374 13.0124C135.854 13.0124 136.326 13.0531 136.789 13.1345C137.253 13.2158 137.704 13.3501 138.144 13.5373C139.153 13.9766 139.934 14.6439 140.487 15.5389C141.04 16.4258 141.317 17.4917 141.317 18.7367C141.317 19.1923 141.284 19.6602 141.219 20.1403C141.154 20.6122 141.06 21.133 140.938 21.7026C141.134 22.2233 141.308 22.7644 141.463 23.3259C141.618 23.8792 141.744 24.404 141.841 24.9003C141.939 25.3967 141.992 25.8117 142 26.1453C142 26.365 141.947 26.5806 141.841 26.7922C141.736 26.9956 141.487 27.0973 141.097 27.0973H140.011C139.58 27.0973 139.319 26.9956 139.23 26.7922C139.14 26.5806 139.075 26.3446 139.035 26.0843C138.994 25.7832 138.945 25.4984 138.888 25.2299C138.839 24.9614 138.795 24.7376 138.754 24.5586C138.721 24.3796 138.697 24.2819 138.681 24.2657L139.559 24.1314C139.372 24.6766 139.055 25.2014 138.608 25.7059C138.16 26.2104 137.595 26.6213 136.911 26.9386C136.228 27.2478 135.439 27.4024 134.544 27.4024ZM135.056 24.5098C135.569 24.5098 136.02 24.4162 136.411 24.2291C136.81 24.0338 137.123 23.8019 137.351 23.5334C137.587 23.2567 137.704 22.9923 137.704 22.74C137.688 22.3901 137.546 22.0972 137.277 21.8612C137.009 21.6171 136.679 21.43 136.289 21.2998C135.898 21.1696 135.496 21.1045 135.081 21.1045C134.731 21.1045 134.393 21.1696 134.068 21.2998C133.751 21.4219 133.49 21.609 133.287 21.8612C133.084 22.1053 132.982 22.4186 132.982 22.801C132.982 23.3381 133.177 23.7571 133.568 24.0582C133.958 24.3592 134.454 24.5098 135.056 24.5098Z" fill="#1F294E"/>
<path fill-rule="evenodd" clip-rule="evenodd" d="M40.3203 8.35416C40.3794 8.64279 40.6793 8.82783 40.9545 8.72295L44.5103 7.36814H53.1613C53.4194 7.36814 53.4739 7.73224 53.2271 7.8078L0.572781 23.9253C0.235324 24.0286 -0.0829744 23.7236 0.0195216 23.3858C3.30559 12.5574 15.417 -0.880834 29.5778 0.205713C32.539 0.882874 39.315 3.44183 40.3203 8.35416ZM22.9951 9.26275C22.9019 9.0727 22.9568 8.83946 23.1312 8.71954C25.0196 7.42091 28.5164 6.05031 29.6181 9.53321C29.6535 9.64494 29.6407 9.76886 29.582 9.87027C28.3777 11.951 25.5456 14.4654 22.9951 9.26275Z" fill="#1F294E"/>
<path fill-rule="evenodd" clip-rule="evenodd" d="M44.5103 7.36814C43.2259 4.6061 37.0996 -0.806642 29.5836 0.101458C29.525 0.108538 29.5202 0.192555 29.5778 0.205713C32.539 0.882874 39.315 3.44183 40.3203 8.35416C40.3794 8.64279 40.6793 8.82783 40.9545 8.72295L44.5103 7.36814Z" fill="#E2725B"/>
<path fill-rule="evenodd" clip-rule="evenodd" d="M18.0287 21.1586C17.883 20.9199 18.004 20.6147 18.2689 20.5251L43.7625 11.9087C44.2351 11.7489 44.5977 12.3895 44.2294 12.726C36.2802 19.9856 37.2929 24.4551 39.1163 26.421C39.3391 26.6612 39.2896 27.0677 38.9929 27.2069C28.0533 32.3393 20.5161 25.2321 18.0287 21.1586Z" fill="#E2725B"/>
</svg>
